<svg id="Layer_1" data-name="Layer 1" xmlns="http://www.w3.org/2000/svg" viewBox="0 0 172.13 53.38"><title>final logo</title><path d="M83.31,0A20.68,20.68,0,0,0,71.74,37.82c.37.25.74.48,1.12.7h0l7.73,13.13.3.51A3,3,0,0,0,83,53.37h.65a3,3,0,0,0,2.13-1.29h0l.18-.31L93.81,38.5h0c.32-.19.64-.4,1-.61A20.68,20.68,0,0,0,83.31,0Zm9,33.39a15.55,15.55,0,1,1,6.59-12.71A15.51,15.51,0,0,1,92.26,33.39Z" style="fill:#fff"/><path d="M83.24,6.3,71.58,29h5.19l2.54-1.27h8L89.82,29H95Zm2,16.42a3.44,3.44,0,1,1,1.49-2.84A3.47,3.47,0,0,1,85.27,22.72Z" style="fill:#fff"/><polygon points="116.46 10.16 116.46 29.02 111.58 29.02 111.58 10.16 104.27 10.16 104.27 6.07 124.06 6.07 124.06 10.16 116.46 10.16" style="fill:#fff"/><path d="M136.38,9.79q-3.39,0-4.84,2.2-1.15,1.71-1.15,5.51,0,4,1.45,5.94a5.37,5.37,0,0,0,4.55,1.86,5.23,5.23,0,0,0,4.47-1.89q1.44-1.89,1.44-5.86a10.55,10.55,0,0,0-1.17-5.49c-.9-1.5-2.49-2.26-4.75-2.27m0-3.87A14.51,14.51,0,0,1,142.4,7.1a8,8,0,0,1,4.3,4.69,17.2,17.2,0,0,1,1,6.08,14.2,14.2,0,0,1-1.19,6.07A8.19,8.19,0,0,1,142,28.25a14.28,14.28,0,0,1-5.26.91A15,15,0,0,1,130,27.71a8.13,8.13,0,0,1-3.67-3.79A14.17,14.17,0,0,1,125,17.66q0-6.56,3.26-9.35Q131,6,136.35,5.92" style="fill:#fff"/><path d="M156,16.21h6.86a4.49,4.49,0,0,0,2.44-.5,3,3,0,0,0,1.09-2.66,2.53,2.53,0,0,0-1.65-2.69,6.38,6.38,0,0,0-1.88-.2H156Zm0,4.09V29h-4.87V6.07h11.19q4.83,0,6.74,1.23a5.55,5.55,0,0,1,2,2.18,6.22,6.22,0,0,1,.72,3,7.12,7.12,0,0,1-1.66,5,6.62,6.62,0,0,1-2.73,1.65,6.83,6.83,0,0,1,2,1,5.08,5.08,0,0,1,1.25,1.58,6.75,6.75,0,0,1,.59,1.57,16.47,16.47,0,0,1,.3,2.26,15.58,15.58,0,0,0,.55,3.47h-5.48a22,22,0,0,1-.5-3.26,9.45,9.45,0,0,0-.73-3.09A3.92,3.92,0,0,0,163.81,21a8.08,8.08,0,0,0-3.87-.7Z" style="fill:#fff"/><path d="M0,6.06H4.88V18.94c.07,1.64.14,2.72.21,3.26A2.61,2.61,0,0,0,6.6,24.35a12,12,0,0,0,4.46.58h4.69V29H10.56a23,23,0,0,1-5.35-.42A6.58,6.58,0,0,1,.4,23.77,21.79,21.79,0,0,1,0,18.94Z" style="fill:#fff"/><path d="M28.11,9.78c-2.26,0-3.87.74-4.84,2.2-.77,1.15-1.15,3-1.15,5.52s.48,4.66,1.45,5.93a5.39,5.39,0,0,0,4.56,1.87,5.28,5.28,0,0,0,4.46-1.89Q34,21.51,34,17.55a10.59,10.59,0,0,0-1.17-5.5c-.9-1.5-2.49-2.26-4.75-2.27m0-3.87a14.69,14.69,0,0,1,6.06,1.18,8,8,0,0,1,4.3,4.69,17.28,17.28,0,0,1,1,6.08,14.31,14.31,0,0,1-1.19,6.08,8.24,8.24,0,0,1-4.52,4.3,14.28,14.28,0,0,1-5.26.9,14.84,14.84,0,0,1-6.74-1.44A8.11,8.11,0,0,1,18,23.91a14,14,0,0,1-1.26-6.26q0-6.57,3.26-9.35c1.83-1.57,4.52-2.36,8.06-2.39" style="fill:#fff"/><path d="M60.3,24.93V29h-8a19.23,19.23,0,0,1-3.5-.24,7.92,7.92,0,0,1-6-4.72,15.59,15.59,0,0,1-1.18-6.45,14.13,14.13,0,0,1,1.8-7.53,7.62,7.62,0,0,1,3.47-3,14.08,14.08,0,0,1,5.64-1H60.3v4.09H53.09q-3.29,0-4.81,1.75Q47,13.34,47,17.14c0,3.39.66,5.61,2,6.68a6.77,6.77,0,0,0,4.28,1.11Z" style="fill:#fff"/><path d="M99.6,41.4h-2v-.79h4.85v.79h-2v6.4H99.6Z" style="fill:#fff"/><path d="M102.85,44.25c0-.61,0-1.12,0-1.6h.75l0,1h0a1.48,1.48,0,0,1,1.32-1.13.82.82,0,0,1,.23,0v.89a1.14,1.14,0,0,0-.28,0c-.61,0-1,.5-1.15,1.2a2,2,0,0,0,0,.43V47.8h-.84Z" style="fill:#fff"/><path d="M109.09,46.56a11.44,11.44,0,0,0,.06,1.24h-.76l-.08-.65h0a1.74,1.74,0,0,1-1.44.76,1.42,1.42,0,0,1-1.44-1.48c0-1.24,1-1.93,2.83-1.9v-.12c0-.43-.12-1.2-1.07-1.2a2.11,2.11,0,0,0-1.22.39l-.2-.62a2.73,2.73,0,0,1,1.55-.45c1.44,0,1.79,1.08,1.79,2.11Zm-.83-1.38c-.93,0-2,.14-2,1.15a.79.79,0,0,0,.8.89,1.18,1.18,0,0,0,1.15-.86,1.65,1.65,0,0,0,0-.3Z" style="fill:#fff"/><path d="M113.63,47.61a3.06,3.06,0,0,1-1.36.3,2.35,2.35,0,0,1-2.34-2.63,2.52,2.52,0,0,1,2.53-2.75,2.71,2.71,0,0,1,1.19.27l-.2.72a1.9,1.9,0,0,0-1-.24,2,2,0,0,0,0,3.88,2.18,2.18,0,0,0,1-.26Z" style="fill:#fff"/><path d="M115.28,45h0a5.68,5.68,0,0,1,.41-.59l1.39-1.77h1l-1.82,2.11,2.07,3h-1l-1.61-2.49-.45.55V47.8h-.85V40.23h.85Z" style="fill:#fff"/><path d="M119.92,41.19a.54.54,0,0,1-.55.57.52.52,0,0,1-.51-.57.54.54,0,0,1,.52-.59A.56.56,0,0,1,119.92,41.19Zm-1,6.61V42.65h.85V47.8Z" style="fill:#fff"/><path d="M121,44c0-.54,0-1,0-1.39h.76l0,.84h0a1.72,1.72,0,0,1,1.56-1c.64,0,1.65.43,1.65,2.19V47.8h-.85v-3c0-.84-.28-1.53-1.09-1.53a1.24,1.24,0,0,0-1.14,1,1.45,1.45,0,0,0-.07.44v3.1H121Z" style="fill:#fff"/><path d="M130.25,47.05a3.17,3.17,0,0,1-.67,2.36,2.39,2.39,0,0,1-1.71.61,2.87,2.87,0,0,1-1.58-.42l.22-.72a2.47,2.47,0,0,0,1.39.42c.87,0,1.51-.51,1.51-1.81v-.58h0a1.66,1.66,0,0,1-1.49.87c-1.18,0-2-1.09-2-2.52,0-1.75,1-2.73,2.12-2.73a1.54,1.54,0,0,1,1.47.89h0l0-.77h.75c0,.36,0,.78,0,1.41Zm-.85-2.38a1.38,1.38,0,0,0-.05-.42,1.24,1.24,0,0,0-1.2-1c-.81,0-1.4.75-1.4,2,0,1,.47,1.86,1.4,1.86a1.27,1.27,0,0,0,1.18-1,1.73,1.73,0,0,0,.07-.5Z" style="fill:#fff"/><path d="M133.38,40.71a7.94,7.94,0,0,1,1.63-.15,2.5,2.5,0,0,1,1.9.59,1.92,1.92,0,0,1,.51,1.36,1.86,1.86,0,0,1-1.23,1.83v0a1.84,1.84,0,0,1,1,1.46,11.15,11.15,0,0,0,.51,2h-.88a10,10,0,0,1-.44-1.72c-.19-1-.54-1.36-1.31-1.39h-.8V47.8h-.85Zm.85,3.27h.87a1.34,1.34,0,0,0,1.48-1.36c0-.94-.62-1.33-1.51-1.35a3.23,3.23,0,0,0-.84.09Z" style="fill:#fff"/><path d="M138.91,45.39c0,1.27.75,1.79,1.61,1.79a2.85,2.85,0,0,0,1.31-.27l.14.67a3.45,3.45,0,0,1-1.56.33,2.31,2.31,0,0,1-2.32-2.6c0-1.56.84-2.78,2.22-2.78S142.24,44,142.24,45a2.27,2.27,0,0,1,0,.44Zm2.51-.67c0-.59-.23-1.52-1.19-1.52s-1.24.87-1.31,1.52Z" style="fill:#fff"/><path d="M147.16,40.23v6.25c0,.44,0,1,0,1.32h-.76l0-.9h0a1.66,1.66,0,0,1-1.58,1c-1.15,0-2-1-2-2.61,0-1.72,1-2.77,2.11-2.77a1.54,1.54,0,0,1,1.42.78h0V40.23Zm-.84,4.51a2.69,2.69,0,0,0,0-.4A1.31,1.31,0,0,0,145,43.27c-.88,0-1.42.84-1.42,2s.48,1.92,1.4,1.92A1.35,1.35,0,0,0,146.28,46a1.78,1.78,0,0,0,0-.41Z" style="fill:#fff"/><path d="M148.87,45.39c0,1.27.75,1.79,1.62,1.79a2.81,2.81,0,0,0,1.3-.27l.14.67a3.42,3.42,0,0,1-1.56.33,2.3,2.3,0,0,1-2.31-2.6c0-1.56.83-2.78,2.21-2.78S152.21,44,152.21,45a2.27,2.27,0,0,1,0,.44Zm2.51-.67c0-.59-.22-1.52-1.19-1.52s-1.24.87-1.31,1.52Z" style="fill:#fff"/><path d="M153.16,47.8V43.35h-.66v-.7h.66v-.26a2.63,2.63,0,0,1,.54-1.8,1.58,1.58,0,0,1,1.14-.48,1.7,1.7,0,0,1,.74.16l-.15.72a1,1,0,0,0-.52-.13c-.72,0-.9.7-.9,1.5v.29h1.13v.7H154V47.8Z" style="fill:#fff"/><path d="M156.68,41.19a.54.54,0,0,1-.55.57.52.52,0,0,1-.51-.57.54.54,0,0,1,.52-.59A.56.56,0,0,1,156.68,41.19Zm-1,6.61V42.65h.84V47.8Z" style="fill:#fff"/><path d="M157.8,44c0-.54,0-1,0-1.39h.76l0,.84h0a1.74,1.74,0,0,1,1.56-1c.64,0,1.65.43,1.65,2.19V47.8H161v-3c0-.84-.29-1.53-1.09-1.53a1.25,1.25,0,0,0-1.15,1,1.45,1.45,0,0,0-.07.44v3.1h-.84Z" style="fill:#fff"/><path d="M163.47,45.39c0,1.27.75,1.79,1.62,1.79a2.81,2.81,0,0,0,1.3-.27l.14.67a3.42,3.42,0,0,1-1.56.33,2.3,2.3,0,0,1-2.31-2.6c0-1.56.83-2.78,2.21-2.78,1.53,0,1.94,1.47,1.94,2.42a2.27,2.27,0,0,1,0,.44Zm2.51-.67c0-.59-.22-1.52-1.19-1.52s-1.24.87-1.31,1.52Z" style="fill:#fff"/><path d="M171.73,40.23v6.25c0,.44,0,1,0,1.32H171l0-.9h0a1.68,1.68,0,0,1-1.59,1c-1.14,0-2-1-2-2.61,0-1.72,1-2.77,2.11-2.77a1.53,1.53,0,0,1,1.42.78h0V40.23Zm-.85,4.51a2.69,2.69,0,0,0,0-.4,1.3,1.3,0,0,0-1.24-1.07c-.89,0-1.42.84-1.42,2s.47,1.92,1.4,1.92A1.34,1.34,0,0,0,170.84,46a1.78,1.78,0,0,0,0-.41Z" style="fill:#fff"/></svg>